<svg xmlns="http://www.w3.org/2000/svg" version="1.1" xmlns:xlink="http://www.w3.org/1999/xlink" width="40" height="40"><svg width="40" height="40" viewBox="0 0 40 40" fill="none" xmlns="http://www.w3.org/2000/svg">
<path d="M6.80693 28.0064C8.71105 32.3181 16.4635 33.0832 24.1232 29.7131C31.783 26.3441 36.4481 20.1171 34.5452 15.8053C33.1196 12.5758 28.4124 11.3368 22.9214 12.334C22.6544 13.4742 22.1672 15.524 22.1672 15.524C25.853 14.8489 29.0158 15.6782 29.9728 17.8452C31.2476 20.7317 28.1231 24.9015 22.9956 27.1561C17.8669 29.4119 12.6763 28.8998 11.4015 26.0134M9.71663 22.2024L5.0293 23.9832L5.12327 24.1942C7.02738 28.506 14.7798 29.2698 22.4396 25.9009C30.0993 22.5319 34.7656 16.3049 32.8615 11.9932C31.4359 8.76366 26.7288 7.52468 21.2378 8.52179C20.9707 9.66328 20.4835 11.7118 20.4835 11.7118C24.1706 11.0368 27.3322 11.8661 28.2892 14.033C29.5639 16.9195 26.4407 21.0881 21.3119 23.3439C16.1832 25.5998 10.9926 25.0876 9.71787 22.2012L11.4017 26.0146M20.4833 11.7121L22.1661 15.5254M5.14169 24.2324L6.82448 28.0456M7.60974 26.7808L9.29253 30.5927M12.4782 27.9867L14.1622 31.7999M16.1682 24.7055L17.8522 28.5175M22.6382 22.6962L24.321 26.5094M27.5869 22.9009L29.271 26.7129M25.4102 11.8073L27.0942 15.6205M27.7796 8.47742L29.4636 12.2894M32.8699 12.0132L34.554 15.8252M32.0304 18.103L33.7145 21.9162M28.384 14.2788L30.068 18.092M27.556 18.4167L29.24 22.2299M20.2631 26.7487L21.9459 30.5619M11.7017 24.0983L13.3858 27.9115M21.2379 8.52215L22.9219 12.3354M6.71404 27.7954L11.4014 26.0147" stroke="#1E1E1E" stroke-width="0.5" stroke-linecap="round" stroke-linejoin="round"></path>
<path d="M15.3095 17.5131L19.245 15.8385M15.3095 17.5131L19.3365 17.2738M15.3095 17.5131L15.7657 12.1611M15.3095 17.5131L11.9944 13.3963M15.3095 17.5131L14.7047 15.9693M15.3095 17.5131L17.0318 14.6538M15.3095 17.5135L17.2519 19.836M15.3095 17.5135L19.2623 18.8155M15.3095 17.5135L16.5459 22.3559M15.3095 17.5135L14.8989 14.5753M12.5988 21.0997L15.3091 17.5135M15.3091 17.5135L14.791 20.632M15.3091 17.5135L13.5523 19.1696M15.3091 17.5135L10.8086 19.2721M15.3091 17.5135L12.2055 17.5417M15.3091 17.5135L11.429 15.8449" stroke="#1E1E1E" stroke-width="0.5" stroke-linecap="round" stroke-linejoin="round"></path>
</svg><style>@media (prefers-color-scheme: light) { :root { filter: none; } }
@media (prefers-color-scheme: dark) { :root { filter: none; } }
</style></svg>